<svg width="76" height="76" viewBox="0 0 76 76" fill="none" xmlns="http://www.w3.org/2000/svg">
<path d="M38 76C58.9868 76 76 58.9868 76 38C76 17.0132 58.9868 0 38 0C17.0132 0 0 17.0132 0 38C0 58.9868 17.0132 76 38 76Z" fill="#fc0156"/>
<path d="M38 76C48.4934 76 57.9934 71.7467 64.8701 64.8701L11.1299 11.1299C4.25331 18.0066 0 27.5066 0 38C0 58.9868 17.0132 76 38 76Z" fill="#fc0156"/>
<path d="M38.0162 36.1C32.8519 36.1 28.4877 33.3156 28.4877 30.0203C28.4877 26.7245 32.8519 23.94 38.0162 23.94C43.1819 23.94 47.546 26.7245 47.546 30.0203C47.546 31.0699 48.3971 31.9203 49.446 31.9203C50.495 31.9203 51.346 31.0699 51.346 30.0203C51.346 24.9603 46.4573 20.913 39.9162 20.247V17.7333C39.9162 16.6838 39.0652 15.8333 38.0162 15.8333C36.9673 15.8333 36.1162 16.6838 36.1162 17.7333V20.247C29.5764 20.9132 24.6877 24.9603 24.6877 30.0202C24.6877 35.5599 30.5424 39.8999 38.0162 39.8999C43.1819 39.8999 47.546 42.6843 47.546 45.9802C47.546 49.2756 43.1819 52.0599 38.0162 52.0599C32.8519 52.0599 28.4877 49.2754 28.4877 45.9802C28.4877 44.9306 27.6367 44.0802 26.5877 44.0802C25.5388 44.0802 24.6877 44.9306 24.6877 45.9802C24.6877 51.0394 29.5763 55.0867 36.1162 55.7527V58.2667C36.1162 59.3163 36.9673 60.1667 38.0162 60.1667C39.0652 60.1667 39.9162 59.3163 39.9162 58.2667V55.753C46.4572 55.087 51.346 51.0397 51.346 45.9803C51.3459 40.4399 45.4913 36.1 38.0162 36.1Z" fill="#FFEBE5"/>
<path d="M36.7581 64.6C36.7581 63.903 37.3284 63.3333 38.0247 63.3333C38.7211 63.3333 39.2914 63.903 39.2914 64.6C39.2914 65.2963 38.7211 65.8667 38.0247 65.8667C37.3284 65.8667 36.7581 65.2963 36.7581 64.6Z" fill="#FFEBE5"/>
<path d="M34.0602 65.5877C33.3762 65.4862 32.8951 64.8529 32.9964 64.1565C33.0855 63.4595 33.7312 62.9913 34.4152 63.0797H34.4276C35.1116 63.1812 35.5928 63.8269 35.4914 64.5109C35.4036 65.1442 34.8581 65.6007 34.2507 65.6007C34.1877 65.6007 34.1234 65.6007 34.0602 65.5877Z" fill="#FFEBE5"/>
<path d="M40.5579 64.511C40.4565 63.8147 40.9376 63.1813 41.6354 63.0798V63.0675C42.3194 62.9784 42.9651 63.4597 43.0666 64.1437C43.1681 64.8407 42.6869 65.4863 41.9891 65.5878C41.9261 65.5878 41.8753 65.6008 41.8123 65.6008C41.1913 65.6007 40.6471 65.1443 40.5579 64.511Z" fill="#FFEBE5"/>
<path d="M30.1849 64.7515C29.5133 64.5617 29.1211 63.8522 29.3228 63.1812C29.5133 62.5095 30.2221 62.1297 30.8938 62.3197C31.5654 62.5225 31.9453 63.219 31.7548 63.8907C31.5903 64.448 31.0844 64.8024 30.5265 64.8024C30.4125 64.8022 30.2986 64.7899 30.1849 64.7515Z" fill="#FFEBE5"/>
<path d="M44.2951 63.8777C44.1046 63.2067 44.4856 62.5095 45.1561 62.3073C45.8278 62.1045 46.5379 62.4972 46.7271 63.1683C46.93 63.84 46.5503 64.5365 45.8786 64.7393C45.7524 64.777 45.6386 64.79 45.5113 64.79C44.9668 64.7898 44.4596 64.4349 44.2951 63.8777Z" fill="#FFEBE5"/>
<path d="M26.4479 63.371C25.8146 63.0797 25.5362 62.3325 25.8269 61.6862C26.1189 61.0528 26.866 60.7745 27.4994 61.0658C28.1327 61.3572 28.4234 62.1044 28.1327 62.7377C27.9175 63.2065 27.4611 63.4849 26.9799 63.4849C26.8029 63.4849 26.6247 63.4472 26.4479 63.371Z" fill="#FFEBE5"/>
<path d="M47.9182 62.7253C47.6263 62.092 47.9046 61.3318 48.538 61.0405C49.1713 60.7492 49.9321 61.0275 50.2228 61.6609C50.5148 62.3072 50.2364 63.0543 49.6031 63.3457C49.425 63.4217 49.2481 63.4595 49.0712 63.4595C48.5886 63.4595 48.1334 63.1812 47.9182 62.7253Z" fill="#FFEBE5"/>
<path d="M22.9645 61.471C22.3694 61.0913 22.2049 60.3058 22.5848 59.7102C22.9521 59.1275 23.7376 58.9507 24.3326 59.3305C24.9153 59.7102 25.0921 60.4957 24.7123 61.0783C24.4712 61.4587 24.0543 61.661 23.6485 61.661C23.4073 61.661 23.1673 61.5978 22.9645 61.471Z" fill="#FFEBE5"/>
<path d="M51.3247 61.066C50.9451 60.4704 51.1219 59.6849 51.7044 59.3052C52.2884 58.9255 53.0726 59.09 53.4536 59.6849C53.8333 60.2675 53.6687 61.053 53.0862 61.4333C52.871 61.5725 52.6297 61.6355 52.3886 61.6355C51.9717 61.6355 51.566 61.4333 51.3247 61.066Z" fill="#FFEBE5"/>
<path d="M19.7719 59.0898C19.2537 58.621 19.1893 57.8232 19.6457 57.3037C20.1022 56.7718 20.9124 56.7087 21.4319 57.1645C21.9637 57.6203 22.0269 58.4312 21.5581 58.9507C21.3181 59.242 20.9631 59.3935 20.6081 59.3935C20.3174 59.3935 20.0131 59.2927 19.7719 59.0898Z" fill="#FFEBE5"/>
<path d="M54.4667 58.9253C54.0103 58.3929 54.0734 57.595 54.5929 57.1392C55.1248 56.6833 55.9226 56.734 56.3791 57.266C56.8356 57.7978 56.7849 58.5957 56.2529 59.0515C56.0118 59.2543 55.7211 59.3682 55.4291 59.3682C55.0741 59.3558 54.7204 59.2167 54.4667 58.9253Z" fill="#FFEBE5"/>
<path d="M16.9601 56.2777C16.5049 55.7458 16.5679 54.948 17.0876 54.4922C17.6194 54.0357 18.4172 54.0863 18.8725 54.6183C19.3413 55.1508 19.2783 55.9486 18.7586 56.4045C18.5186 56.6073 18.2143 56.7211 17.9225 56.7211C17.5687 56.721 17.2138 56.5688 16.9601 56.2777Z" fill="#FFEBE5"/>
<path d="M57.2782 56.3667C56.7464 55.9102 56.6956 55.1124 57.152 54.5805C57.6072 54.0487 58.4051 53.9978 58.9382 54.4537C59.47 54.9095 59.5209 55.708 59.0644 56.2399C58.8107 56.5312 58.4558 56.6834 58.102 56.6834C57.8101 56.6834 57.5194 56.5819 57.2782 56.3667Z" fill="#FFEBE5"/>
<path d="M14.579 53.0985C14.1994 52.5158 14.3639 51.7304 14.9587 51.3507C15.5414 50.9704 16.3269 51.1478 16.7066 51.7304C17.0875 52.313 16.9094 53.0985 16.3269 53.4782C16.1117 53.6174 15.884 53.681 15.6429 53.681C15.2247 53.6812 14.8203 53.4784 14.579 53.0985Z" fill="#FFEBE5"/>
<path d="M59.6979 53.4407C59.1153 53.0604 58.9384 52.2755 59.3183 51.6928C59.6979 51.0972 60.4834 50.9327 61.0661 51.3125C61.6611 51.6928 61.8256 52.4777 61.4458 53.0604C61.2046 53.4407 60.8001 53.6431 60.3819 53.6431C60.1408 53.6429 59.9131 53.5797 59.6979 53.4407Z" fill="#FFEBE5"/>
<path d="M12.6666 49.6277C12.3746 48.982 12.6542 48.2342 13.2875 47.9429C13.9209 47.6515 14.6804 47.9305 14.9711 48.5638C15.2631 49.1972 14.9847 49.9573 14.3514 50.2487C14.1733 50.3247 13.9964 50.3625 13.8195 50.3625C13.3382 50.3624 12.8817 50.084 12.6666 49.6277Z" fill="#FFEBE5"/>
<path d="M61.6735 50.1978C61.0401 49.9065 60.7618 49.1593 61.0537 48.526C61.3445 47.8797 62.0916 47.6007 62.725 47.8927C63.3583 48.184 63.6503 48.9435 63.3583 49.5769C63.1431 50.0457 62.6879 50.3117 62.2055 50.3117C62.0285 50.3117 61.8516 50.274 61.6735 50.1978Z" fill="#FFEBE5"/>
<path d="M11.2725 45.9037C11.071 45.2327 11.4507 44.5232 12.1211 44.3333C12.7927 44.1305 13.5028 44.5102 13.692 45.1818C13.8949 45.8528 13.5152 46.5623 12.8435 46.7522C12.7173 46.7905 12.6035 46.8028 12.4886 46.8028C11.9319 46.803 11.4383 46.4485 11.2725 45.9037Z" fill="#FFEBE5"/>
<path d="M63.1688 46.7145C62.4971 46.5117 62.1173 45.8022 62.3067 45.1312C62.5095 44.4595 63.2196 44.0797 63.89 44.2697C64.5617 44.4725 64.9415 45.169 64.7521 45.8407C64.5876 46.398 64.0805 46.7524 63.5225 46.7524C63.4088 46.7522 63.295 46.7399 63.1688 46.7145Z" fill="#FFEBE5"/>
<path d="M10.4241 42.0152C10.3226 41.3312 10.8051 40.6849 11.488 40.584C12.1856 40.4825 12.8313 40.9637 12.9328 41.6602C13.0343 42.3442 12.5531 42.9905 11.8553 43.092C11.7923 43.1044 11.7291 43.1044 11.6785 43.1044C11.0575 43.1044 10.5131 42.6485 10.4241 42.0152Z" fill="#FFEBE5"/>
<path d="M64.1559 43.0413C63.4595 42.9398 62.9782 42.2935 63.0797 41.6095C63.1812 40.9132 63.8145 40.4318 64.5109 40.5333C65.2072 40.6342 65.676 41.2675 65.5883 41.9645C65.4992 42.5978 64.955 43.0537 64.334 43.0537C64.271 43.0537 64.2203 43.0413 64.1559 43.0413Z" fill="#FFEBE5"/>
<path d="M10.1333 38.0507C10.1333 37.3537 10.69 36.784 11.4 36.784C12.0963 36.784 12.6666 37.3537 12.6666 38.0507C12.6666 38.747 12.0963 39.3174 11.4 39.3174C10.7036 39.3174 10.1333 38.7595 10.1333 38.0507Z" fill="#FFEBE5"/>
<path d="M63.3333 38C63.3333 37.987 63.3333 37.987 63.3333 37.9747C63.3333 37.9493 63.3333 37.924 63.3333 37.8987C63.3333 37.1893 63.89 36.632 64.5876 36.619C65.2964 36.619 65.8542 37.1893 65.8666 37.8857C65.8666 37.911 65.8666 37.924 65.8666 37.9493C65.8666 37.9617 65.8666 37.987 65.8666 38C65.8666 38.6964 65.2963 39.2667 64.5999 39.2667C63.9036 39.2667 63.3333 38.6964 63.3333 38Z" fill="#FFEBE5"/>
<path d="M11.4755 35.5297C10.7915 35.4282 10.3103 34.7825 10.3993 34.0985C10.5008 33.4015 11.1341 32.9203 11.8304 33.0217C12.5268 33.1102 13.0081 33.7565 12.9066 34.4405C12.8188 35.0738 12.2869 35.5427 11.6659 35.5427C11.6028 35.5427 11.5385 35.5297 11.4755 35.5297Z" fill="#FFEBE5"/>
<path d="M63.0672 34.2885C62.9657 33.6045 63.4469 32.9588 64.1311 32.8573C64.8274 32.7558 65.4732 33.237 65.5746 33.9212C65.6761 34.6175 65.1949 35.2639 64.4984 35.3653C64.4354 35.3653 64.3709 35.3777 64.3079 35.3777C63.7006 35.3777 63.1551 34.9218 63.0672 34.2885Z" fill="#FFEBE5"/>
<path d="M12.0964 31.7805C11.4247 31.5777 11.0449 30.8812 11.2354 30.2095C11.4382 29.5385 12.1347 29.1457 12.8051 29.3485C13.4767 29.5383 13.8566 30.2478 13.6672 30.9188C13.5151 31.4637 12.9956 31.8312 12.4512 31.8312C12.3377 31.8312 12.2102 31.8182 12.0964 31.7805Z" fill="#FFEBE5"/>
<path d="M62.2818 30.7673C62.079 30.0957 62.471 29.3862 63.1428 29.1963C63.8145 28.9935 64.511 29.3738 64.7138 30.0449C64.9166 30.7165 64.5233 31.413 63.8653 31.6158C63.7379 31.6535 63.6242 31.6665 63.498 31.6665C62.9536 31.6667 62.4463 31.3117 62.2818 30.7673Z" fill="#FFEBE5"/>
<path d="M13.2494 28.158C12.6037 27.8667 12.3241 27.1189 12.616 26.4732C12.9067 25.8398 13.6552 25.5609 14.3009 25.8522C14.9342 26.1435 15.2125 26.8913 14.9218 27.5247C14.719 27.9929 14.2502 28.2719 13.769 28.2719C13.5907 28.2719 13.4139 28.234 13.2494 28.158Z" fill="#FFEBE5"/>
<path d="M61.0027 27.3849C60.7108 26.7515 60.9891 25.992 61.6224 25.7007C62.2694 25.4093 63.0166 25.6877 63.3073 26.321C63.5992 26.9544 63.3209 27.7145 62.6875 28.0058C62.5218 28.0818 62.3326 28.1197 62.1544 28.1197C61.6733 28.1197 61.2181 27.8537 61.0027 27.3849Z" fill="#FFEBE5"/>
<path d="M14.908 24.7377C14.313 24.358 14.1361 23.5725 14.5158 22.9898C14.8955 22.3942 15.681 22.2297 16.2637 22.5972C16.8587 22.9769 17.0232 23.7623 16.6559 24.358C16.4158 24.7253 15.9978 24.9407 15.5797 24.9407C15.3521 24.9407 15.111 24.8645 14.908 24.7377Z" fill="#FFEBE5"/>
<path d="M59.2674 24.2312C58.8877 23.6355 59.0522 22.8507 59.6347 22.4703C60.2297 22.0907 61.0028 22.2675 61.3949 22.8507C61.7746 23.4333 61.5977 24.2182 61.0152 24.5985C60.8 24.7377 60.5587 24.8007 60.3312 24.8007C59.9131 24.8009 59.5074 24.5985 59.2674 24.2312Z" fill="#FFEBE5"/>
<path d="M17.0234 21.584C16.4915 21.1275 16.4407 20.3297 16.8972 19.7978C17.3536 19.266 18.1515 19.2152 18.6833 19.671C19.2152 20.1269 19.266 20.9253 18.8095 21.4572C18.5559 21.7485 18.2145 21.8877 17.8595 21.8877C17.5552 21.8877 17.2645 21.7863 17.0234 21.584Z" fill="#FFEBE5"/>
<path d="M57.0878 21.3429C56.6325 20.811 56.6832 20.0132 57.2029 19.5573C57.7347 19.1009 58.5326 19.1515 58.9878 19.6842C59.4566 20.203 59.4059 21.0009 58.8739 21.4573C58.6339 21.6725 58.3421 21.774 58.0378 21.774C57.6839 21.774 57.3413 21.6342 57.0878 21.3429Z" fill="#FFEBE5"/>
<path d="M19.5703 18.7719C19.1138 18.24 19.1645 17.4422 19.6965 16.9857C20.2283 16.5175 21.0262 16.5805 21.4827 17.1125C21.9379 17.632 21.8885 18.4298 21.3552 18.8987C21.1275 19.1009 20.8234 19.2024 20.5327 19.2024C20.1777 19.2022 19.8225 19.0507 19.5703 18.7719Z" fill="#FFEBE5"/>
<path d="M54.5175 18.7972C53.9856 18.3413 53.9348 17.5429 54.39 17.011C54.8465 16.4792 55.6443 16.416 56.1761 16.8718C56.708 17.3277 56.7588 18.1385 56.3036 18.658C56.0625 18.9493 55.7073 19.1009 55.3536 19.1009C55.0618 19.1009 54.7575 19 54.5175 18.7972Z" fill="#FFEBE5"/>
<path d="M22.4958 16.3522C22.1161 15.7572 22.2806 14.9717 22.8755 14.592C23.4581 14.2117 24.2436 14.3762 24.6233 14.9717C25.0043 15.5543 24.8261 16.3398 24.2436 16.7195C24.0408 16.8593 23.8008 16.9223 23.5596 16.9223C23.1415 16.9225 22.7371 16.7197 22.4958 16.3522Z" fill="#FFEBE5"/>
<path d="M51.629 16.6435C51.034 16.2638 50.8559 15.4783 51.2368 14.8833C51.6165 14.3007 52.402 14.1232 52.9847 14.503C53.5797 14.8833 53.7442 15.6682 53.3769 16.2508C53.1368 16.6312 52.7188 16.8341 52.3007 16.8341C52.0719 16.834 51.8319 16.7703 51.629 16.6435Z" fill="#FFEBE5"/>
<path d="M25.7256 14.3638C25.4349 13.7175 25.7132 12.9703 26.3466 12.679C26.9799 12.3877 27.7394 12.6667 28.0314 13.3C28.3221 13.9333 28.0437 14.6805 27.4104 14.9842C27.2335 15.0602 27.0554 15.0987 26.8786 15.0987C26.3972 15.0985 25.9408 14.8197 25.7256 14.3638Z" fill="#FFEBE5"/>
<path d="M48.4501 14.921C47.8167 14.6297 47.5248 13.8695 47.8167 13.2362C48.1074 12.6029 48.8546 12.3115 49.5015 12.6029C50.1349 12.8942 50.4132 13.642 50.1212 14.2877C49.9061 14.7565 49.4509 15.0225 48.9697 15.0225C48.7914 15.0225 48.6146 14.9972 48.4501 14.921Z" fill="#FFEBE5"/>
<path d="M29.209 12.8565C29.0197 12.1848 29.3994 11.476 30.0711 11.2732C30.7415 11.0833 31.438 11.463 31.6408 12.1342C31.8436 12.8058 31.464 13.5023 30.7923 13.7052C30.6661 13.7428 30.5523 13.7558 30.425 13.7558C29.8806 13.7558 29.3735 13.4008 29.209 12.8565Z" fill="#FFEBE5"/>
<path d="M45.0546 13.6673C44.3842 13.4645 44.0044 12.7674 44.1936 12.0963C44.384 11.4253 45.0929 11.0325 45.7645 11.2349C46.4362 11.4253 46.816 12.1218 46.6256 12.7929C46.461 13.3507 45.9675 13.7175 45.4096 13.7175C45.2957 13.7175 45.1819 13.6927 45.0546 13.6673Z" fill="#FFEBE5"/>
<path d="M32.8827 11.8558C32.7812 11.1718 33.2623 10.5262 33.9588 10.4247C33.9588 10.4247 33.9588 10.4247 33.9465 10.4247C34.6428 10.3232 35.2887 10.8044 35.39 11.5009C35.4915 12.1849 35.0103 12.8312 34.3138 12.9327C34.2508 12.945 34.2 12.945 34.137 12.945C33.516 12.945 32.9716 12.4892 32.8827 11.8558Z" fill="#FFEBE5"/>
<path d="M41.5215 12.9073C40.8375 12.8182 40.3428 12.1725 40.4441 11.4761C40.5456 10.7921 41.1789 10.3103 41.8753 10.3993C42.5716 10.5008 43.054 11.1341 42.9527 11.8305C42.8636 12.4638 42.3194 12.9197 41.6984 12.9197C41.6477 12.9197 41.5847 12.9197 41.5215 12.9073Z" fill="#FFEBE5"/>
<path d="M36.6443 11.4C36.6443 10.703 37.2146 10.1333 37.911 10.1333C38.6073 10.1333 39.1776 10.6907 39.19 11.4C39.19 12.0963 38.6209 12.6667 37.9233 12.6667C37.2145 12.6667 36.6566 12.1093 36.6443 11.4Z" fill="#FFEBE5"/>
<path d="M38 70.9333C19.8399 70.9333 5.06665 56.1594 5.06665 38C5.06665 19.8406 19.8399 5.06668 38 5.06668C56.16 5.06668 70.9333 19.8406 70.9333 38C70.9333 56.1594 56.16 70.9333 38 70.9333ZM38 7.60001C21.2377 7.60001 7.59998 21.2377 7.59998 38C7.59998 54.7623 21.2377 68.4 38 68.4C54.7623 68.4 68.4 54.7623 68.4 38C68.4 21.2377 54.7623 7.60001 38 7.60001Z" fill="#FFEBE5"/>
<path d="M38 70.9333C47.0799 70.9333 55.3133 67.2399 61.2766 61.2766L59.4858 59.4858C53.9812 64.9906 46.3812 68.4 38 68.4C21.2377 68.4 7.59998 54.7623 7.59998 38C7.59998 29.6188 11.0094 22.0188 16.5142 16.5142L14.7234 14.7234C8.76009 20.6869 5.06665 28.9202 5.06665 38C5.06665 56.1594 19.8399 70.9333 38 70.9333Z" fill="#FFEBE5"/>
<path d="M39.9162 58.2667V55.753C44.5229 55.284 48.301 53.1338 50.138 50.138L47.3011 47.3011C46.3253 49.9861 42.4726 52.0602 38.016 52.0602C32.8516 52.0602 28.4875 49.2757 28.4875 45.9805C28.4875 44.9309 27.6365 44.0805 26.5875 44.0805C25.5385 44.0805 24.6875 44.9309 24.6875 45.9805C24.6875 51.0397 29.576 55.087 36.116 55.753V58.2667C36.116 59.3163 36.967 60.1667 38.016 60.1667C39.065 60.1667 39.9162 59.3163 39.9162 58.2667Z" fill="#FFEBE5"/>
<path d="M25.8832 25.8834C25.1201 27.136 24.6875 28.5323 24.6875 30.0203C24.6875 35.5601 30.5422 39.9 38.016 39.9C38.712 39.9 39.3916 39.9543 40.0498 40.0499L35.9432 35.9434C31.7366 35.3202 28.4875 32.8626 28.4875 30.0202C28.4875 29.576 28.5727 29.1425 28.7225 28.7225L25.8832 25.8834Z" fill="#FFEBE5"/>
</svg>
